<?xml version="1.0" encoding="utf-8"?>
<svg viewBox="1 1 13 13" xmlns="http://www.w3.org/2000/svg">
  <path d="M14,7.5c0,3.5899-2.9101,6.5-6.5,6.5S1,11.0899,1,7.5S3.9101,1,7.5,1S14,3.9101,14,7.5z"/>
  <path class="xmcdc9a" d="M 9.466 7.271 C 9.431 7.255 9.396 7.238 9.359 7.223 C 9.296 6.065 8.664 5.403 7.602 5.396 C 7.597 5.396 7.593 5.396 7.588 5.396 C 6.953 5.396 6.425 5.667 6.1 6.161 L 6.683 6.561 C 6.927 6.192 7.308 6.114 7.588 6.114 C 7.592 6.114 7.595 6.114 7.598 6.114 C 7.947 6.117 8.211 6.218 8.383 6.416 C 8.507 6.56 8.589 6.759 8.631 7.011 C 8.321 6.959 7.985 6.943 7.627 6.963 C 6.618 7.022 5.969 7.61 6.013 8.428 C 6.034 8.843 6.241 9.2 6.594 9.433 C 6.893 9.631 7.278 9.727 7.677 9.705 C 8.206 9.676 8.619 9.475 8.908 9.106 C 9.128 8.826 9.266 8.464 9.328 8.007 C 9.58 8.159 9.766 8.359 9.869 8.599 C 10.044 9.008 10.054 9.678 9.506 10.226 C 9.027 10.705 8.451 10.912 7.579 10.919 C 6.613 10.912 5.882 10.601 5.406 9.997 C 4.961 9.432 4.731 8.614 4.723 7.568 C 4.731 6.522 4.961 5.705 5.406 5.139 C 5.882 4.535 6.613 4.225 7.579 4.218 C 8.552 4.225 9.296 4.537 9.79 5.144 C 10.032 5.442 10.215 5.816 10.334 6.252 L 11.019 6.07 C 10.873 5.533 10.644 5.069 10.332 4.686 C 9.699 3.907 8.774 3.508 7.581 3.5 L 7.577 3.5 C 6.387 3.508 5.472 3.909 4.858 4.69 C 4.31 5.386 4.029 6.353 4.019 7.566 L 4.019 7.568 L 4.019 7.571 C 4.029 8.784 4.31 9.752 4.858 10.447 C 5.472 11.227 6.387 11.628 7.577 11.637 L 7.581 11.637 C 8.64 11.629 9.385 11.352 10 10.739 C 10.803 9.936 10.778 8.929 10.514 8.312 C 10.323 7.869 9.961 7.508 9.466 7.271 Z M 7.639 8.989 C 7.198 9.013 6.738 8.814 6.715 8.389 C 6.698 8.074 6.939 7.722 7.667 7.68 C 7.751 7.675 7.832 7.673 7.912 7.673 C 8.176 7.673 8.423 7.699 8.649 7.748 C 8.565 8.795 8.073 8.964 7.639 8.989 Z" style="fill: rgb(255, 255, 255);"/>
</svg>